<?xml version="1.0" standalone="no"?>
<!DOCTYPE svg PUBLIC "-//W3C//DTD SVG 20010904//EN"
 "http://www.w3.org/TR/2001/REC-SVG-20010904/DTD/svg10.dtd">
<svg version="1.0" xmlns="http://www.w3.org/2000/svg"
 width="666.000000pt" height="666.000000pt" viewBox="0 0 666.000000 666.000000"
 preserveAspectRatio="xMidYMid meet">
<metadata>
Created by potrace 1.14, written by Peter Selinger 2001-2017
</metadata>
<g transform="translate(0.000000,666.000000) scale(0.100000,-0.100000)"
fill="#000000" stroke="none">
<path d="M2505 6550 c-379 -98 -710 -246 -1035 -464 l-135 -91 281 -5 281 -5
35 -27 c65 -50 68 -65 68 -362 l0 -266 266 0 c297 0 312 -3 362 -68 l27 -35 0
-232 0 -232 -27 -35 c-50 -65 -65 -68 -362 -68 l-265 0 -3 -278 -3 -279 -27
-35 c-51 -67 -58 -68 -430 -68 -315 0 -331 -1 -300 -17 18 -9 45 -32 60 -51
l27 -35 0 -232 0 -232 -27 -35 c-48 -63 -71 -68 -298 -68 -227 0 -250 5 -298
68 l-27 35 0 232 0 232 27 35 c15 20 41 42 58 50 16 7 30 15 30 18 0 3 -14 11
-30 18 -17 8 -43 30 -58 50 l-27 35 -3 279 -3 278 -194 0 -193 0 -32 -77 c-74
-176 -149 -434 -189 -643 -73 -387 -73 -833 0 -1220 218 -1152 1016 -2101
2109 -2508 112 -42 349 -112 463 -136 l27 -6 0 68 c0 78 27 142 73 176 28 21
41 21 575 24 l547 2 45 -22 c62 -32 90 -88 90 -181 l0 -68 38 7 c20 4 102 24
182 46 658 179 1251 564 1693 1098 l87 105 -279 5 -278 5 -35 27 c-71 54 -68
28 -68 697 l0 600 -283 3 -284 3 -35 27 c-65 50 -68 64 -68 367 l0 271 -266 0
c-297 0 -312 3 -362 68 l-27 35 0 232 0 232 27 35 c50 65 65 68 362 68 l265 0
3 278 3 279 27 35 c15 20 41 42 58 50 16 7 30 15 30 18 0 3 -14 11 -30 18 -17
8 -43 30 -58 50 l-27 35 0 232 0 232 27 35 c48 63 71 68 303 68 232 0 255 -5
303 -68 l27 -35 0 -232 0 -232 -27 -35 c-15 -19 -42 -42 -60 -51 -31 -16 -16
-17 295 -17 367 0 374 -1 425 -68 l27 -35 3 -279 3 -278 265 0 c212 0 272 -3
300 -15 l36 -15 -7 46 c-17 116 -119 445 -185 600 l-19 43 -144 3 c-138 3
-145 4 -179 30 -63 48 -68 71 -68 300 0 184 2 208 20 243 l20 39 -25 36 c-57
79 -48 75 -98 46 -43 -26 -46 -26 -246 -26 -228 0 -251 5 -299 68 l-27 35 0
226 c0 219 1 227 23 258 l22 32 -57 44 c-327 251 -779 464 -1210 568 l-125 31
-31 -37 c-54 -67 -39 -65 -632 -65 -592 0 -579 -1 -631 64 -16 20 -31 36 -34
36 -3 -1 -72 -18 -155 -40z m751 -586 c15 -11 37 -33 48 -48 20 -26 21 -41 21
-256 0 -215 -1 -230 -21 -256 -11 -15 -33 -37 -48 -48 -26 -20 -41 -21 -261
-21 -220 0 -235 1 -261 21 -67 50 -69 56 -72 277 -4 232 -1 255 35 298 47 56
65 59 310 56 206 -2 224 -3 249 -23z m-1324 -2666 c20 -15 42 -41 50 -58 7
-16 15 -30 18 -30 3 0 11 14 18 30 8 17 30 43 50 58 l35 27 549 3 c612 3 592
5 646 -66 l27 -35 3 -284 3 -283 270 0 c303 0 317 -3 367 -68 l27 -35 0 -227
0 -227 -27 -35 c-50 -65 -64 -68 -367 -68 l-271 0 0 -601 c0 -669 3 -643 -68
-697 l-35 -27 -232 0 -232 0 -35 27 c-71 54 -68 28 -68 697 l0 600 -278 3
-279 3 -35 27 c-67 51 -68 58 -68 425 0 311 -1 326 -17 295 -9 -18 -32 -45
-51 -60 l-35 -27 -219 -3 c-245 -3 -266 1 -316 66 l-27 35 0 232 0 232 27 35
c50 65 66 68 314 66 l221 -3 35 -27z"/>
</g>
</svg>
